<svg width="46" height="46" viewBox="0 0 46 46" fill="none" xmlns="http://www.w3.org/2000/svg">
<g clip-path="url(#clip0_141_2)">
<path d="M23 46C16.9 46 11.0499 43.5768 6.73654 39.2635C2.4232 34.9501 -1.272e-06 29.1 -1.00536e-06 23C-7.38723e-07 16.9 2.42321 11.0499 6.73654 6.73654C11.0499 2.42321 16.9 -1.272e-06 23 -1.00536e-06C29.1 -7.38723e-07 34.9501 2.42321 39.2635 6.73654C43.5768 11.0499 46 16.9 46 23C46 29.1 43.5768 34.9501 39.2635 39.2635C34.9501 43.5768 29.1 46 23 46V46ZM33.0625 24.4375C33.4437 24.4375 33.8094 24.2861 34.079 24.0165C34.3485 23.7469 34.5 23.3812 34.5 23C34.5 22.6188 34.3485 22.2531 34.079 21.9835C33.8094 21.714 33.4437 21.5625 33.0625 21.5625L16.4076 21.5625L22.5802 15.3927C22.8502 15.1228 23.0018 14.7567 23.0018 14.375C23.0018 13.9933 22.8502 13.6272 22.5802 13.3572C22.3103 13.0873 21.9442 12.9357 21.5625 12.9357C21.1808 12.9357 20.8147 13.0873 20.5447 13.3572L11.9197 21.9822C11.7859 22.1158 11.6797 22.2744 11.6072 22.4491C11.5347 22.6237 11.4974 22.8109 11.4974 23C11.4974 23.1891 11.5347 23.3763 11.6072 23.5509C11.6797 23.7256 11.7859 23.8842 11.9197 24.0177L20.5447 32.6427C20.8147 32.9127 21.1808 33.0643 21.5625 33.0643C21.9442 33.0643 22.3103 32.9127 22.5802 32.6427C22.8502 32.3728 23.0018 32.0067 23.0018 31.625C23.0018 31.2433 22.8502 30.8772 22.5802 30.6072L16.4076 24.4375L33.0625 24.4375Z" fill="#6A6A6A" fill-opacity="0.15"/>
</g>
<defs>
<clipPath id="clip0_141_2">
<rect width="46" height="46" fill="white" transform="translate(46) rotate(90)"/>
</clipPath>
</defs>
</svg>
