<svg width="30" height="30" viewBox="0 0 30 30" fill="none" xmlns="http://www.w3.org/2000/svg">
<path d="M7.3591 17.3115L12.6856 22.641L22.4626 12.864L17.1331 7.5375L7.3591 17.3115ZM28.6561 9.996L26.3896 7.728C25.8139 8.04256 25.1518 8.16218 24.5025 8.06897C23.8531 7.97576 23.2514 7.67473 22.7875 7.21094C22.3235 6.74715 22.0223 6.14557 21.9288 5.49624C21.8354 4.84692 21.9548 4.1848 22.2691 3.609L20.0026 1.341C19.7169 1.05777 19.3309 0.898865 18.9286 0.898865C18.5263 0.898865 18.1403 1.05777 17.8546 1.341L1.3396 17.856C1.05637 18.1417 0.897461 18.5277 0.897461 18.93C0.897461 19.3323 1.05637 19.7183 1.3396 20.004L3.6076 22.269C4.18357 21.9536 4.84626 21.8335 5.49628 21.9266C6.1463 22.0198 6.74861 22.3212 7.21285 22.7856C7.67709 23.25 7.97825 23.8524 8.07115 24.5024C8.16405 25.1525 8.04368 25.8151 7.7281 26.391L9.9961 28.656C10.2814 28.94 10.6676 29.0994 11.0701 29.0994C11.4726 29.0994 11.8588 28.94 12.1441 28.656L28.6561 12.144C28.9401 11.8587 29.0995 11.4725 29.0995 11.07C29.0995 10.6675 28.9401 10.2813 28.6561 9.996ZM12.6856 25.0785L4.9216 17.3115L17.1346 5.1L24.8986 12.864L12.6856 25.0785Z" fill="#9C9C9C"/>
</svg>
